<svg xmlns="http://www.w3.org/2000/svg" viewBox="0 0 32 32" fill="none">
  <!-- Coffee cup body -->
  <path d="M6 12h17v8a6 6 0 0 1-6 6h-5a6 6 0 0 1-6-6v-8z" fill="#e76f00"/>
  <!-- Cup handle -->
  <path d="M23 14h2.5a3.5 3.5 0 0 1 0 7H23v-2h2.5a1.5 1.5 0 0 0 0-3H23v-2z" fill="#f89820"/>
  <!-- Steam -->
  <path d="M11 3c-1.5 1.5 1.5 3 0 5" stroke="#5382a1" stroke-width="1.4" stroke-linecap="round"/>
  <path d="M15 2c-1.5 1.5 1.5 3 0 5" stroke="#5382a1" stroke-width="1.4" stroke-linecap="round"/>
  <path d="M19 3c-1.5 1.5 1.5 3 0 5" stroke="#5382a1" stroke-width="1.4" stroke-linecap="round"/>
  <!-- Saucer -->
  <rect x="6" y="28" width="17" height="2" rx="1" fill="#5382a1"/>
</svg>
